<svg id="visual" viewBox="0 0 960 540" width="960" height="540" xmlns="http://www.w3.org/2000/svg" xmlns:xlink="http://www.w3.org/1999/xlink" version="1.1"><rect x="0" y="0" width="960" height="540" fill="#001220"></rect><path d="M0 269L22.8 278.8C45.7 288.7 91.3 308.3 137 303C182.7 297.7 228.3 267.3 274 265.2C319.7 263 365.3 289 411.2 291C457 293 503 271 548.8 272.3C594.7 273.7 640.3 298.3 686 299.2C731.7 300 777.3 277 823 274.8C868.7 272.7 914.3 291.3 937.2 300.7L960 310L960 541L937.2 541C914.3 541 868.7 541 823 541C777.3 541 731.7 541 686 541C640.3 541 594.7 541 548.8 541C503 541 457 541 411.2 541C365.3 541 319.7 541 274 541C228.3 541 182.7 541 137 541C91.3 541 45.7 541 22.8 541L0 541Z" fill="#fa7268"></path><path d="M0 275L22.8 282.5C45.7 290 91.3 305 137 314.8C182.7 324.7 228.3 329.3 274 337.3C319.7 345.3 365.3 356.7 411.2 350.5C457 344.3 503 320.7 548.8 307.2C594.7 293.7 640.3 290.3 686 301.7C731.7 313 777.3 339 823 343.8C868.7 348.7 914.3 332.3 937.2 324.2L960 316L960 541L937.2 541C914.3 541 868.7 541 823 541C777.3 541 731.7 541 686 541C640.3 541 594.7 541 548.8 541C503 541 457 541 411.2 541C365.3 541 319.7 541 274 541C228.3 541 182.7 541 137 541C91.3 541 45.7 541 22.8 541L0 541Z" fill="#f16367"></path><path d="M0 339L22.8 345.5C45.7 352 91.3 365 137 364C182.7 363 228.3 348 274 339.2C319.7 330.3 365.3 327.7 411.2 328.5C457 329.3 503 333.7 548.8 334.3C594.7 335 640.3 332 686 338.2C731.7 344.3 777.3 359.7 823 371C868.7 382.3 914.3 389.7 937.2 393.3L960 397L960 541L937.2 541C914.3 541 868.7 541 823 541C777.3 541 731.7 541 686 541C640.3 541 594.7 541 548.8 541C503 541 457 541 411.2 541C365.3 541 319.7 541 274 541C228.3 541 182.7 541 137 541C91.3 541 45.7 541 22.8 541L0 541Z" fill="#e85467"></path><path d="M0 382L22.8 387.2C45.7 392.3 91.3 402.7 137 404.5C182.7 406.3 228.3 399.7 274 398.5C319.7 397.3 365.3 401.7 411.2 397.7C457 393.7 503 381.3 548.8 378.2C594.7 375 640.3 381 686 388.7C731.7 396.3 777.3 405.7 823 413.8C868.7 422 914.3 429 937.2 432.5L960 436L960 541L937.2 541C914.3 541 868.7 541 823 541C777.3 541 731.7 541 686 541C640.3 541 594.7 541 548.8 541C503 541 457 541 411.2 541C365.3 541 319.7 541 274 541C228.3 541 182.7 541 137 541C91.3 541 45.7 541 22.8 541L0 541Z" fill="#de4467"></path><path d="M0 437L22.8 435.3C45.7 433.7 91.3 430.3 137 432.2C182.7 434 228.3 441 274 446.7C319.7 452.3 365.3 456.7 411.2 453.3C457 450 503 439 548.8 439.7C594.7 440.3 640.3 452.7 686 453.3C731.7 454 777.3 443 823 442C868.7 441 914.3 450 937.2 454.5L960 459L960 541L937.2 541C914.3 541 868.7 541 823 541C777.3 541 731.7 541 686 541C640.3 541 594.7 541 548.8 541C503 541 457 541 411.2 541C365.3 541 319.7 541 274 541C228.3 541 182.7 541 137 541C91.3 541 45.7 541 22.8 541L0 541Z" fill="#d23467"></path><path d="M0 501L22.8 495.8C45.7 490.7 91.3 480.3 137 481.3C182.7 482.3 228.3 494.7 274 496C319.7 497.3 365.3 487.7 411.2 486.7C457 485.7 503 493.3 548.8 499C594.7 504.7 640.3 508.3 686 509.2C731.7 510 777.3 508 823 506C868.7 504 914.3 502 937.2 501L960 500L960 541L937.2 541C914.3 541 868.7 541 823 541C777.3 541 731.7 541 686 541C640.3 541 594.7 541 548.8 541C503 541 457 541 411.2 541C365.3 541 319.7 541 274 541C228.3 541 182.7 541 137 541C91.3 541 45.7 541 22.8 541L0 541Z" fill="#c62368"></path></svg>